General
Complete name                    : Melissa P.mkv
Format                           : Matroska
File size                        : 2.23 GiB
Duration                         : 1h 33mn
Overall bit rate                 : 3 398 Kbps


Video
ID                               : 1
Format                           : AVC
Duration                         : 1h 33mn
Bit rate                         : 1 731 Kbps
Nominal bit rate                 : 1 650 Kbps
Width                            : 720 pixels
Height                           : 552 pixels
Display aspect ratio             : 1.855
Frame rate                       : 25.000 fps
Resolution                       : 8 bits
Colorimetry                      : 4:2:0
Scan type                        : Progressive
Bits/(Pixel*Frame)               : 0.174
Stream size                      : 1.14 GiB (51%)
Writing library                  : x264 core 79


Audio #1
ID                               : 2
Format                           : AC-3
Format/Info                      : Audio Coding 3
Codec ID                         : A_AC3
Duration                         : 1h 33mn
Bit rate mode                    : Constant
Bit rate                         : 448 Kbps
Channel(s)                       : 6 channels
Channel positions                : Front: L C R, Surround: L R, LFE
Sampling rate                    : 48.0 KHz
Stream size                      : 301 MiB (13%)
Language                         : Italian

Audio #2
ID                               : 3
Format                           : AC-3
Format/Info                      : Audio Coding 3
Codec ID                         : A_AC3
Duration                         : 1h 33mn
Bit rate mode                    : Constant
Bit rate                         : 448 Kbps
Channel(s)                       : 6 channels
Channel positions                : Front: L C R, Surround: L R, LFE
Sampling rate                    : 48.0 KHz
Stream size                      : 301 MiB (13%)
Language                         : French

Audio #3
ID                               : 4
Format                           : AC-3
Format/Info                      : Audio Coding 3
Codec ID                         : A_AC3
Duration                         : 1h 33mn
Bit rate mode                    : Constant
Bit rate                         : 448 Kbps
Channel(s)                       : 6 channels
Channel positions                : Front: L C R, Surround: L R, LFE
Sampling rate                    : 48.0 KHz
Stream size                      : 301 MiB (13%)
Language                         : German

Audio #4
ID                               : 5
Format                           : MPEG Audio
Format version                   : Version 1
Format profile                   : Layer 3
Mode                             : Joint stereo / MS Stereo
Codec ID                         : A_MPEG/L3
Codec ID/Hint                    : MP3
Duration                         : 1h 33mn
Bit rate mode                    : Constant
Bit rate                         : 128 Kbps
Channel(s)                       : 2 channels
Sampling rate                    : 48.0 KHz
Stream size                      : 86.0 MiB (4%)
Writing library                  : LAME3.98
Language                         : Turkish

Audio #5
ID                               : Director commentary
Format                           : MPEG Audio
Format version                   : Version 1
Format profile                   : Layer 3
Mode                             : Joint stereo / MS Stereo
Codec ID                         : A_MPEG/L3
Codec ID/Hint                    : MP3
Duration                         : 1h 33mn
Bit rate mode                    : Constant
Bit rate                         : 128 Kbps
Channel(s)                       : 2 channels
Sampling rate                    : 48.0 KHz
Stream size                      : 86.0 MiB (4%)
Writing library                  : LAME3.98
Language                         : Italian

Text #1
Language                         : English

Text #2
Language                         : French

Text #3
Language                         : German

Text #4
Language                         : Dutch

Text #5
Language                         : Turkish

Text #6
Language                         : Arabic

Text #7
Language                         : Bulgarian

Text #8
Language                         : Croatian

Text #9
Language                         : Czech

Text #10
Language                         : Danish

Text #11
Language                         : Finnish

Text #12
Language                         : Greek

Text #13
Language                         : ????xxxx????

Text #14
Language                         : Hindi

Text #15
Language                         : Hungarian

Text #16
Language                         : Icelandic

Text #17
Language                         : Norwegian

Text #18
Language                         : Polish

Text #19
Language                         : Romanian

Text #20
Language                         : Slovenian

Text #21
Language                         : Swedish

Text #22
Language                         : English

Text #23
Language                         : English

Text #24
Language                         : French

Text #25
Language                         : German

Text #26
Language                         : Dutch


